<?xml version="1.0" encoding="utf-8"?>
<!-- Generator: Adobe Illustrator 19.0.0, SVG Export Plug-In . SVG Version: 6.00 Build 0)  -->
<svg version="1.1" id="Layer_2" xmlns="http://www.w3.org/2000/svg" xmlns:xlink="http://www.w3.org/1999/xlink" x="0px" y="0px"
	 viewBox="0 0 1000 800" style="enable-background:new 0 0 1000 800;" xml:space="preserve">
<style type="text/css">
	.st0{fill:#DCDCDC;}
</style>
<g id="XMLID_282_">
	<path id="XMLID_286_" class="st0" d="M533,399.6c-3.3-10.4-5.5-22.1-5.5-44.4c0-23,3.9-84.3,75-108.7c0,0-74.2,9.9-85.2,80.5
		c-11,70.6,20.9,75.8,13.6,108.2C530.9,435.1,540.3,422.6,533,399.6z"/>
	<circle id="XMLID_523_" class="st0" cx="493.1" cy="311.5" r="17.5"/>
	<path id="XMLID_524_" class="st0" d="M474.5,273.1c7.4-13.5,4.2-39,4.2-39s-23.1,11.2-30.5,24.7c-5.4,9.9-0.9,18.2,2,22
		c3.5-19.7,23.3-35.5,23.3-35.5c-10.9,10.8-14.9,29.3-16.2,38.1C462.5,283.3,470,281.5,474.5,273.1z"/>
	<path id="XMLID_525_" class="st0" d="M438.6,309.5c2.2-3.8,4.3-10.2,0.1-17.3c-6.6-11.6-26.9-20.9-26.9-20.9s-2.2,22.2,4.4,33.7
		c4.8,8.5,13.1,8.9,17.2,8.6c-12.9-11.5-15.6-33.4-15.6-33.4C420.8,293.1,432.6,304.5,438.6,309.5z"/>
	<path id="XMLID_526_" class="st0" d="M451,338.7c-0.8-3.3-3.1-8.1-9.3-9.9c-10-3-26.5,2.7-26.5,2.7s10.7,13.8,20.7,16.8
		c7.3,2.2,12.2-2,14.4-4.4c-13.6,0.4-26.9-10.5-26.9-10.5C432.1,339,444.9,339,451,338.7z"/>
	<path id="XMLID_527_" class="st0" d="M469.5,368.6c-0.8-3.2-3-7.8-9-9.6c-9.7-2.9-25.6,2.6-25.6,2.6s10.3,13.3,20,16.2
		c7.1,2.1,11.8-1.9,13.9-4.3c-13.1,0.4-26-10.2-26-10.2C451.2,368.9,463.6,369,469.5,368.6z"/>
	<path id="XMLID_528_" class="st0" d="M630.3,244.1c-15,0.2-28.8,5.7-37.2,9.8c3.2,4.3,9,9.6,17.9,8.5c14.5-1.8,31.8-19.8,31.8-19.8
		s-21.1-13.4-35.6-11.7c-10,1.2-14.3,9.3-16,14.2C609.4,239.7,630.3,244.1,630.3,244.1z"/>
	<path id="XMLID_529_" class="st0" d="M605.3,278.3c0,0-13-10.9-22.9-11c-6.8-0.1-10.4,5-12,8.1c12.7-2,26.4,2.8,26.4,2.8
		c-10.1-1.2-19.9,1.3-25.9,3.3c1.7,3.2,5.2,7.2,11.3,7.3C592.1,288.9,605.3,278.3,605.3,278.3z"/>
	<path id="XMLID_530_" class="st0" d="M559.8,234.4c-2.7,6.3,0.6,11.5,2.9,14.2c3.1-12.5,12.8-23.2,12.8-23.2
		c-5,8.8-6.5,18.8-7,25.1c3.6-0.4,8.7-2,11.1-7.6c3.9-9.1-0.7-25.4-0.7-25.4S563.8,225.3,559.8,234.4z"/>
	<path id="XMLID_531_" class="st0" d="M543.8,264.5c2.9-0.7,6.8-2.5,8.2-7.3c2.3-7.8-3.2-20.6-3.2-20.6s-11.5,7.8-13.7,15.6
		c-1.6,5.4,1.6,9.3,3.8,11.3c1.2-10.5,8-20.2,8-20.2C543.8,251,543.6,259.3,543.8,264.5z"/>
	<path id="XMLID_532_" class="st0" d="M529.4,286.5c2.4-1.7,5.4-4.9,5-9.8c-0.8-8.1-10.6-17.9-10.6-17.9s-7.7,11.5-6.9,19.6
		c0.5,5.6,5,8,7.7,9.1c-2.8-10.2-0.1-21.7-0.1-21.7C524.3,274,527.2,281.8,529.4,286.5z"/>
	<path id="XMLID_533_" class="st0" d="M582.1,300.8c0,0-14.3-9-24.2-7.8c-6.8,0.9-9.7,6.3-10.8,9.7c12.4-3.7,26.5-0.8,26.5-0.8
		c-10.1,0.2-19.5,3.9-25.2,6.8c2.2,2.9,6.1,6.5,12.2,5.7C570.4,313.1,582.1,300.8,582.1,300.8z"/>
	<path id="XMLID_534_" class="st0" d="M546.3,343.5c8.4-1.1,18.4-11.6,18.4-11.6s-12.2-7.7-20.6-6.7c-5.8,0.7-8.2,5.4-9.2,8.3
		c10.6-3.2,22.6-0.7,22.6-0.7c-8.7,0.2-16.7,3.4-21.5,5.8C537.7,341.1,541.1,344.2,546.3,343.5z"/>
	<path id="XMLID_535_" class="st0" d="M593.1,223.9c-0.4-0.2-0.7-0.4-1.1-0.6c0.1,0.4,0.1,0.8,0.2,1.2
		C592.5,224.3,592.8,224.1,593.1,223.9z"/>
	<path id="XMLID_536_" class="st0" d="M353.5,517c3.9-2.7,8.1-5.2,12.4-7.7c-24.3-29.8-38.9-67.8-38.9-109.3
		c0-95.6,77.5-173.1,173.1-173.1c16.6,0,32.6,2.3,47.8,6.7c0.3-1.3,0.7-2.6,1.3-3.8c3.3-7.6,10.7-13.9,16.6-17.9
		c-20.6-7.2-42.6-11.1-65.6-11.1c-110,0-199.2,89.2-199.2,199.2c0,46.8,16.2,89.9,43.2,123.9C347,521.5,350.2,519.2,353.5,517z"/>
	<path id="XMLID_576_" class="st0" d="M641.4,259.7c-6.3,5.1-14.9,10.9-23.8,13.4c34.1,31.6,55.5,76.8,55.5,127
		c0,44.6-16.9,85.2-44.6,115.9c-28.5-14.7-64.9-24.5-105.1-27c13.5-22.2,11.2-44.4,11.2-44.4c-0.8,15.5-12.2,33-20.7,44
		c-3.5-0.1-7-0.2-10.6-0.2c-0.9,0-1.9,0-2.8,0c15.5-11.9,49.3-47.5,6.1-109.8c-40.2-58-56.5-63.4-49.8-101.5
		c0,0-23.5,20.9,11.5,73.2c34,50.8,72.7,86.1,29.4,138.2c-3.1,0.1-6.2,0.1-9.2,0.3c43.5-55.4-0.1-99-0.1-99
		c21.8,49.2-4.2,84.7-20.1,100.6c-86.2,9.4-151.5,52.7-152.5,104.9c20.4-49.8,113.2-87.3,224.7-87.3c31.1,0,60.8,2.9,87.9,8.3
		c-31.7,35-77.4,57-128.3,57c-36.5,0-70.4-11.3-98.3-30.6c-1.1,0.4-2.3,0.9-3.4,1.3c-8.6,3.4-16.6,7-23.8,10.9
		c34.3,27.8,77.9,44.5,125.5,44.5c110,0,199.2-89.2,199.2-199.2C699.2,345.3,677.1,295.7,641.4,259.7z"/>
</g>
</svg>
