<?xml version="1.0" encoding="utf-8"?>
<!-- Generator: Adobe Illustrator 19.0.0, SVG Export Plug-In . SVG Version: 6.00 Build 0)  -->
<svg version="1.1" id="Layer_2" xmlns="http://www.w3.org/2000/svg" xmlns:xlink="http://www.w3.org/1999/xlink" x="0px" y="0px"
	 viewBox="0 0 1000 800" style="enable-background:new 0 0 1000 800;" xml:space="preserve">
<style type="text/css">
	.st0{fill:url(#XMLID_16_);}
	.st1{fill:#68923D;}
	.st2{fill:url(#XMLID_17_);}
</style>
<g id="XMLID_3_">
	<g id="XMLID_64_">
		<g id="XMLID_68_">
			<linearGradient id="XMLID_16_" gradientUnits="userSpaceOnUse" x1="500" y1="143" x2="500" y2="1297.6946">
				<stop  offset="0" style="stop-color:#8CC542"/>
				<stop  offset="0.5502" style="stop-color:#079247"/>
				<stop  offset="1" style="stop-color:#0C6B38"/>
			</linearGradient>
			<path id="XMLID_70_" class="st0" d="M500,175.7c-123.9,0-224.3,100.4-224.3,224.3c0,101.5,67.5,187.3,160,215
				c11-9,23.6-20.4,32.1-31.4c0,0,35.4-70.2-36-70.2c0,0,18-8.1,30.4-3.7c0,0-23.2-34.5-52.2-32.5c0,0,0.1-0.1,0.4-0.2
				c-2.4,0.8-5.5,1.2-9.5,0.6c-13.9-2-24.9-15-24.9-15s13.1-9.6,28.1-7.5c11.7,1.6,14.1,8.9,14.6,12.1c-17.8-2.1-30.1-2.8-30.1-2.8
				s12.9,2.8,29.7,5.6c-0.8,1.6-2.5,4.3-5.9,6.1c4.7-1.6,16.8-3.4,39.3,6.2c0,0-5-16-25.4-25.4c0,0,22.5,1.5,30.3,13.3
				c4.7,7,3.6,13.7,8.8,17.7c5.3,4,12.7,14.3,14.5,14.6c1.9,0.3,5-43.5-18.3-57.7c-10.2-6.2-33.7,3.1-48.4-30.6
				c-2.9,1.5-8.8,3-16.1-3.4c-9.5-8.4-11.4-23.7-11.4-23.7s14.7-0.7,24.9,8.4c7.2,6.4,6.5,12.5,5.4,15.5
				c8.3,9.3,22.4,22.1,34.7,18.7c0,0-0.9-25.1-5-31c0,0,15.8,22,22,37.9c0,0,12.1,13,17.4,11.5c5.3-1.6,6.5-21.7,5.6-23.6
				c-0.9-1.9-30.1-27.3-32.6-32.6c-2.3-4.9-3.3-27-8.2-31.8c-0.8-0.5-1.3-0.8-1.3-0.8c0.5,0.1,0.9,0.4,1.3,0.8
				c3.1,2.2,11.3,9,15,23.4c0,0,7.1,10.6,10.2,8.7c0,0,1.7-26.7,11-34.1c0,0-5.9,19.2-3.9,25.8c3.9,12.8,5.6,18.7,11.2,20.1
				c7.3,1.9,20.5-6,25.8-15.8c3.2-6,2.5-14.3,22.7-24.1c0,0,0.6-0.3,1.4-0.7c-0.1-3.7,1.4-9,8.5-13.8c11.7-7.8,28.6-5.4,28.6-5.4
				s-3.4,15.9-16,24.3c-9.8,6.6-16.5,2.8-19,0.7c14.6-10.3,24.3-18,24.3-18s-5.1,2.9-12.8,7.5c0.1,0,0.2,0,0.3,0
				c0,0-0.3,0.1-0.9,0.4c-3.7,2.2-8,4.8-12.5,7.7c0-0.1-0.1-0.3-0.1-0.4c-6.8,5-14.1,12.3-16.1,22.2c0,0,5.1,9.6,20.8-7.6
				c0,0,1.9-3.5,17.9-6.2c0,0-26.4,19.1-28.4,23.6c-2,4.5-26.9,4.3-28.9,13.2c-2,8.9-4.2,21.1-2,35.1c0,0,13.4-27.8,22.5-31.7
				c12.9-5.5,20.2-7.1,23.9-8.9c3.7-1.7,22-23.3,23.6-28.4c0,0-0.6,23-26.1,41.1c0,0,28.1,10.7,48.3-21.3c0,0-11.5,36.8-58.8,33.1
				c0,0-38.6,45.2-27.6,84.3c0,0,8.8-24.7,31.5-27.6c22.7-3,10.2-27,12-31.7c0,0,1.7,8.4,3.7,11.8c2,3.4,4.2,19.2-3.4,22.7
				c0,0,8.8,7.8,19.2-1.7c10.4-9.5,4.2-13.7,23.4-19.1c0,0-9.2,5.1-11.3,10.4c-2.2,5.3-6.7,17.9-16.8,20.5
				c-10.1,2.6-21.7,3.1-22.8,3.1c0,0,13.7,23.3,44.1,8.8c0,0,18.6-4.5,26.9,3.1c0,0-20-0.6-22.5,2.3c-2.5,3-15.4,9.5-18.3,9.5
				c0,0,4.5,5.3,4.3,9.8c0,0-29.5-28.6-52.9-19.9c-23.4,8.7-9.6,43.9-9,48.3c0.6,4.3,5.8,32.4,49.6,48
				c89.4-29.6,153.8-113.8,153.8-213C724.3,276.1,623.9,175.7,500,175.7z M565,448.8c-0.9,7.5-5.5,9.2-7.5,9.6
				c1.1-11.4,1.3-19.4,1.3-19.4s-1.6,8.3-3.1,19.2c-1.9-0.8-6-3.5-5.2-11.1c1-9,9.2-16.3,9.2-16.3S566.1,439.1,565,448.8z
				 M700.3,426.7c-4.7,7.9-11.2,7.1-13.9,6.4c6.9-12.1,11-20.8,11-20.8s-6,8.3-13.2,19.5c-1.9-2-5.7-7.4-0.9-15.2
				c5.6-9.3,19.2-12.8,19.2-12.8S706.4,416.5,700.3,426.7z M659.7,424.6c-1.9-2.1-5.6-8-0.1-17.2c6.6-10.8,21.4-15.4,21.4-15.4
				s3.3,14.3-3.8,26c-5.6,9.1-12.5,8.6-15.3,7.8c8.1-14,13.1-24,13.1-24S668,411.6,659.7,424.6z M683.1,374.4
				c-5,10.7-12.7,10.9-15.8,10.5c7.2-16.4,11.5-28,11.5-28s-6.5,11.5-14.1,26.8c-2.4-2.1-7.2-8.1-2.1-18.9
				c5.9-12.7,21.6-19.5,21.6-19.5S689.5,360.6,683.1,374.4z M658.1,306.2c0,0,13.1,9.5,15.7,24.5c2,11.6-4.2,16.2-7,17.6
				c-3.4-17.5-6.5-29.5-6.5-29.5s1.3,13.1,3.7,30c-3.2-0.4-10.5-2.6-12.5-14.3C649.1,320.8,658.1,306.2,658.1,306.2z M633.6,430.8
				c-2.7-1.7-8.4-6.9-5.2-18.3c3.8-13.5,18.2-22.7,18.2-22.7s7.8,14.2,3.7,28.9c-3.2,11.4-10.7,12.8-13.9,12.9
				c4.4-17.3,6.8-29.5,6.8-29.5S638.7,414.5,633.6,430.8z M618.1,385.5c-2.3-2.2-6.8-8.4-1.3-18.9c6.5-12.4,22.4-18.5,22.4-18.5
				s4.7,15.5-2.3,29c-5.4,10.5-13.1,10.4-16.3,9.8c7.9-16,12.7-27.4,12.7-27.4S626.4,370.6,618.1,385.5z M648.7,285.6
				c0,0,5,16.3-0.8,29.1c-4.9,10.8-12.6,11-15.7,10.6c6.7-15.7,11.2-28.1,11.2-28.1s-6,10.8-13.8,26.9c-2.4-2.1-7.2-8.1-2.3-18.8
				C633.6,291.5,648.7,285.6,648.7,285.6z M609.4,254.8c0,0,11.8,1.6,18.8,10.3c5.4,6.8,3,11.9,1.6,13.9
				c-8.4-10.1-14.6-16.8-14.6-16.8s5.4,8.1,12.9,18.1c-2.2,0.8-7.7,2-13.1-4.8C608.7,267.3,609.4,254.8,609.4,254.8z M608.5,272.7
				c0,0,5.2,15.4-1.3,29.1c-5.1,10.7-12.8,10.8-15.9,10.3c7.3-16.3,11.7-27.9,11.7-27.9s-6.5,11.5-14.3,26.7
				c-2.3-2.1-7.1-8.2-2-18.9C592.8,279.4,608.5,272.7,608.5,272.7z M505,256c0,0,11.9,11,12.6,26.2c0.6,11.8-6.1,15.6-9.1,16.6
				c-1.3-17.8-2.9-30.1-2.9-30.1s-0.3,13.2,0.1,30.2c-3.1-0.8-10.1-3.9-10.7-15.7C494.3,269.3,505,256,505,256z M351.3,272.4
				c5.9-12.7,21.6-19.5,21.6-19.5s5.4,15.3-1.1,29.1c-5,10.7-12.7,10.9-15.8,10.5c7.2-16.4,11.5-28,11.5-28s-6.4,11.5-14.1,26.8
				C351.1,289.1,346.3,283.1,351.3,272.4z M346.9,298.2c0,0,11.2,12.9,11.1,26.9c-0.1,11.8-7,15.2-10.1,16.1
				c-0.3-17.1-1.1-30.2-1.1-30.2s-1.1,12.3-1.7,30.2c-3-1-9.9-4.5-9.8-16.3C335.4,309.7,346.9,298.2,346.9,298.2z M369.8,461.9
				c-2.1,2.3-8.2,7.1-18.9,2c-12.6-6-19.3-21.8-19.3-21.8s15.4-5.2,29.1,1.3c10.7,5.1,10.8,12.8,10.3,15.9
				c-16.3-7.3-27.9-11.7-27.9-11.7S354.6,454.2,369.8,461.9z M307.7,343.7c0,0,16.1,1.6,25.9,13.3c7.6,9.1,4.5,16.1,2.8,18.8
				c-11.8-13.4-20.5-22.3-20.5-22.3s7.7,10.7,18.3,24.1c-2.9,1.2-10.4,3-18-6C307.2,360.7,307.7,343.7,307.7,343.7z M324.1,404.9
				c10.5,5.4,10.5,13,9.9,16.2c-16.1-7.8-27.5-12.5-27.5-12.5s11.3,6.9,26.3,15c-2.2,2.3-8.4,6.9-18.9,1.5
				c-12.5-6.4-18.7-22.3-18.7-22.3S310.6,398,324.1,404.9z M343.1,478.1c-1.7,2.7-7,8.3-18.3,5c-13.5-3.9-22.6-18.4-22.6-18.4
				s14.3-7.6,28.9-3.4c11.3,3.3,12.7,10.8,12.8,14c-17.3-4.6-29.4-7.1-29.4-7.1S326.9,472.9,343.1,478.1z M419.2,496.6
				c7.3,3.4,7.4,8.7,7.1,10.8c-10.6-4.7-19-8-19-8s7.3,4.2,18.2,9.7c-1.5,1.6-5.6,4.8-12.9,1.4c-9.3-4.4-13.2-14.8-13.2-14.8
				S410.6,492.5,419.2,496.6z M406.5,534c8.6-6.4,14.8-3.2,17.1-1.5c-12.2,9.5-21.2,17.2-21.2,17.2s9.5-5.9,22.8-15.2
				c0.9,2.7,2.1,9.6-6.5,15.9c-11,8.1-25.6,6.1-25.6,6.1S396.3,541.6,406.5,534z M388.3,521.7c-16.7,3.5-29.4,6.9-29.4,6.9
				s12.3-1.2,30-4.1c-0.4,3.2-2.5,10.5-14.1,12.7c-14.9,2.8-28.4-6.3-28.4-6.3s10.5-13.5,24.3-16
				C382.2,512.8,386.9,518.9,388.3,521.7z M382.2,488.1c-13.1,9.5-21.7,16.6-21.7,16.6s10.3-6,23.2-14.5c0.9,2.7,1.9,9.6-7,15.7
				c-10.4,7.2-25.8,5.3-25.8,5.3s2.8-14.4,14.1-22.2C373.9,483,379.9,486.3,382.2,488.1z M375.5,415.7
				c-11.9-13.4-20.6-22.1-20.6-22.1s7.8,10.7,18.4,24c-2.9,1.2-10.4,3.1-18-6c-9.1-10.7-8.6-27.8-8.6-27.8s16.2,1.5,25.9,13.1
				C380.2,406,377.2,413,375.5,415.7z M405.6,421.9c11.7,1.6,14.1,8.9,14.6,12.1c-17.8-2.1-30.1-2.8-30.1-2.8s12.9,2.8,29.7,5.6
				c-1.3,2.9-5.7,9.2-17.4,7.6c-13.9-1.9-24.9-15-24.9-15S390.5,419.8,405.6,421.9z M389.7,374.1c-10.8-12-18.8-19.9-18.8-19.9
				s7.1,9.6,16.8,21.5c-2.6,1.2-9.4,2.9-16.4-5.3c-8.3-9.6-8-25.1-8-25.1s14.6,1.3,23.6,11.7C393.9,365.3,391.3,371.7,389.7,374.1z
				 M385.6,326.5c-1.1-17.8-2.6-30.1-2.6-30.1s-0.5,13.2-0.3,30.2c-3.1-0.8-10.1-4-10.5-15.8c-0.5-14,10.3-27.2,10.3-27.2
				s11.8,11.2,12.3,26.3C395.3,321.7,388.6,325.4,385.6,326.5z M418.1,366.6c-6.4-16.7-11.6-27.9-11.6-27.9s3.5,12.7,8.9,28.9
				c-3.2,0.1-10.8-0.7-14.8-11.9c-4.7-13.2,1.6-29,1.6-29s14.6,7.1,19.7,21.4C425.9,359.1,420.6,364.7,418.1,366.6z M414.3,292.8
				c-0.8-17-2-30.2-2-30.2s-0.8,12.3-0.8,30.2c-3.1-0.9-10-4.2-10.2-16c-0.3-15.2,10.8-27,10.8-27s11.6,12.5,11.9,26.5
				C424.1,288.2,417.3,291.8,414.3,292.8z M425.3,233.7c4.4-14.5,18.6-22.4,18.6-22.4s7.2,15.5,3.1,28.9
				c-3.4,11.3-11,12.6-14.2,12.6c4.5-16.4,7.4-29.3,7.4-29.3s-4.5,11.5-10.1,28.5C427.5,250.3,421.9,245,425.3,233.7z M424.9,298.5
				c-0.9-14,9.6-27.5,9.6-27.5s12.1,10.9,13,26c0.8,11.8-5.9,15.7-8.9,16.8c-1.6-17.8-3.4-30-3.4-30s-0.1,13.2,0.5,30.2
				C432.8,313.3,425.7,310.3,424.9,298.5z M451.5,384.2c3.8,9.3-0.6,14.2-2.7,15.9c-6-14-10.8-23.4-10.8-23.4s3.4,10.7,8.5,24.3
				c-2.7,0.2-9.2-0.3-13-9.6c-4.5-11.1,0.4-24.8,0.4-24.8S446.6,372.2,451.5,384.2z M450.3,357.3c-6.4-15.8-11.9-27.8-11.9-27.8
				s3.4,11.9,9.3,28.8c-3.2,0.2-10.8-0.6-15-11.7c-5.3-14.2,1.2-29.1,1.2-29.1s15.1,8,20,21.1C458.1,349.7,452.8,355.3,450.3,357.3z
				 M455,288.5c2.8-13.7,16.5-24,16.5-24s8.8,13.6,5.8,28.5c-2.4,11.6-9.8,13.6-12.9,13.9c3.2-17.6,4.6-29.9,4.6-29.9
				s-3.6,12.7-7.4,29.3C458.7,304.8,452.7,300.1,455,288.5z M482.2,351.9c-8.4-15.8-14.9-26.3-14.9-26.3s5.1,12.2,12.4,27.6
				c-3.1,0.5-10.8,0.6-16.2-10c-6.3-12.5-1.9-29-1.9-29s15.4,5.3,22.2,18.8C489.1,343.6,484.5,349.7,482.2,351.9z M475.5,252.6
				c5.3-16.2,8.8-28.9,8.8-28.9s-5.1,11.3-11.4,28c-2.6-1.9-7.9-7.4-3.9-18.6c5.1-14.3,19.6-21.5,19.6-21.5s6.4,15.8,1.7,29
				C486.3,251.8,478.6,252.8,475.5,252.6z M487.8,327c4.7-11.8,18.5-18.7,18.5-18.7s5.7,13.5,0.6,26.3c-3.9,9.9-10.9,10.5-13.7,10.3
				c5.6-15.2,8.9-25.9,8.9-25.9s-5.2,10.7-11.3,24.9C488.5,342.2,483.9,337,487.8,327z M513.8,371.6c-8.7,8-15.8,5.3-18.6,3.7
				c12.8-12.5,21.2-21.6,21.2-21.6s-10.3,8.2-23.1,19.5c-1.4-2.9-3.6-10.2,5.1-18.3c10.3-9.5,27.3-9.9,27.3-9.9
				S524.9,361.3,513.8,371.6z M524,248.5c-8.6-12.5-5.9-28.5-5.9-28.5s16.6,4,24.6,15.6c6.7,9.7,3,16.5,1.1,19
				c-10.1-13.8-18.4-24-18.4-24s6.2,10.7,16,25.6C538.3,257.1,530.7,258.2,524,248.5z M534,277.5c5.6-12.9,21.1-20,21.1-20
				s5.8,15.2-0.3,29.1c-4.7,10.8-12.4,11.2-15.6,10.9c6.8-16.6,10.7-28.3,10.7-28.3s-6.1,11.7-13.3,27.1
				C534.3,294.3,529.3,288.4,534,277.5z M553.5,330.1c-9.8,6.6-16.5,2.8-19,0.7c14.6-10.3,24.3-18,24.3-18s-11.5,6.5-25.9,15.6
				c-0.9-3-1.9-10.7,7.9-17.2c11.7-7.8,28.6-5.4,28.6-5.4S566.1,321.7,553.5,330.1z M575.3,281.3c-1.1-17-2.5-30.1-2.5-30.1
				s-0.6,12.4-0.3,30.2c-3.1-0.8-10.1-4-10.5-15.8c-0.5-15.2,10.4-27.2,10.4-27.2s11.8,12.4,12.3,26.4
				C585.1,276.5,578.3,280.2,575.3,281.3z M582.7,347.4c-1.1-2.6-2.8-9.4,5.5-16.3c9.7-8.1,25.2-7.7,25.2-7.7s-1.5,14.6-12,23.4
				c-8.2,6.9-14.6,4.1-17,2.5c12.1-10.7,20.1-18.5,20.1-18.5S594.7,337.8,582.7,347.4z M598.5,394.2c-0.1-16.2-0.8-27.3-0.8-27.3
				s-1.1,11.9-1.8,27.3c-2.7-0.9-8.9-4.1-8.7-14.8c0.2-12.7,10.7-24,10.7-24s10.1,10.7,9.8,24.4
				C607.6,390.4,601.3,393.4,598.5,394.2z M584.3,441.2c13.3-12,21.9-20.8,21.9-20.8s-10.6,7.9-23.8,18.6
				c-1.3-2.9-3.2-10.4,5.8-18.1c10.6-9.1,27.7-8.9,27.7-8.9s-1.4,16.2-12.9,26.1C594.1,445.8,587,442.9,584.3,441.2z M599.9,448.1
				c6.9-12.2,23.1-17.7,23.1-17.7s4.1,15.7-3.4,28.9c-5.8,10.3-13.5,9.9-16.6,9.2c8.5-15.7,13.7-27,13.7-27s-7.4,11-16.2,25.6
				C598.3,464.8,594,458.4,599.9,448.1z M602.4,501c12-13.2,19.8-22.9,19.8-22.9s-9.8,8.9-21.8,20.9c-1.6-2.8-4.2-10,3.9-18.6
				c9.6-10.2,26.7-11.6,26.7-11.6s0.2,16.2-10.2,27.2C612.6,504.6,605.2,502.4,602.4,501z M596,537.8c-8-2.5-8.8-7.9-8.8-10.2
				c12.2,3.6,20.7,5.5,20.7,5.5s-8.7-3.5-20.1-7.5c1.3-1.9,5.1-5.8,13.1-3.2c9.5,3,15.7,13.4,15.7,13.4S606.3,541.1,596,537.8z
				 M633.3,514.5c-7.1,5.2-12.2,2.6-14.1,1.2c10.6-8.2,17.5-14.2,17.5-14.2s-8.3,5.2-18.8,12.5c-0.8-2.2-1.8-7.9,5.3-13.1
				c8.4-6.2,21.1-5,21.1-5S642.5,507.8,633.3,514.5z M644.3,460.8c-0.8-3.1-1.6-10.7,8.4-17c11.8-7.5,28.7-4.7,28.7-4.7
				s-3.8,15.8-16.6,23.9c-10,6.3-16.6,2.3-19,0.3c14.9-9.9,24.8-17.3,24.8-17.3S659,452.1,644.3,460.8z M650.5,493.6
				c9.5-10.5,15.7-18.2,15.7-18.2s-7.8,7-17.3,16.6c-1.2-2.2-3.3-7.9,3.1-14.7c7.7-8.1,21.2-9.2,21.2-9.2s0.2,12.9-8.1,21.6
				C658.6,496.5,652.8,494.7,650.5,493.6z M677.7,514c-9.5,7.1-16.3,3.6-18.9,1.7c14.1-11,23.4-19.2,23.4-19.2s-11.1,7.1-25.1,16.9
				c-1.1-3-2.4-10.6,7-17.6c11.2-8.4,28.3-6.9,28.3-6.9S689.9,505,677.7,514z M683.1,478.7c8.8-15.5,14.3-26.6,14.3-26.6
				s-7.6,10.8-16.8,25.2c-2.1-2.4-6.3-8.8-0.2-19c7.2-12,23.5-17.1,23.5-17.1s3.7,15.8-4.1,28.8C693.9,480,686.2,479.4,683.1,478.7z
				"/>
			<path id="XMLID_69_" class="st1" d="M412.4,412.2c-0.6-1.5-1.2-3-1.7-4.6c-9.7-8-16.3-12.9-16.3-12.9S401.9,402.4,412.4,412.2z"
				/>
		</g>
		<linearGradient id="XMLID_17_" gradientUnits="userSpaceOnUse" x1="500" y1="144.9998" x2="500" y2="950.094">
			<stop  offset="0" style="stop-color:#8CC542"/>
			<stop  offset="0.5502" style="stop-color:#079247"/>
			<stop  offset="1" style="stop-color:#0C6B38"/>
		</linearGradient>
		<path id="XMLID_65_" class="st2" d="M500,152.9c136.5,0,247.1,110.6,247.1,247.1S636.5,647.1,500,647.1S252.9,536.5,252.9,400
			S363.5,152.9,500,152.9 M500,138.9c-69.7,0-135.3,27.2-184.6,76.5c-49.3,49.3-76.5,114.9-76.5,184.6c0,69.7,27.2,135.3,76.5,184.6
			c49.3,49.3,114.9,76.5,184.6,76.5s135.3-27.2,184.6-76.5c49.3-49.3,76.5-114.9,76.5-184.6c0-69.7-27.2-135.3-76.5-184.6
			C635.3,166.1,569.7,138.9,500,138.9L500,138.9z"/>
	</g>
</g>
</svg>
